<svg xmlns="http://www.w3.org/2000/svg" xmlns:xlink="http://www.w3.org/1999/xlink" version="1.1" width="256" height="256" viewBox="0 0 256 256" xml:space="preserve">

<defs>
</defs>
<g style="stroke: none; stroke-width: 0; stroke-dasharray: none; stroke-linecap: butt; stroke-linejoin: miter; stroke-miterlimit: 10; fill: none; fill-rule: nonzero; opacity: 1;" transform="translate(1.4065934065934016 1.4065934065934016) scale(2.81 2.81)" >
	<path d="M 51.909 90 c -7.25 0 -14.227 -3.043 -19.166 -8.353 c -0.053 -0.05 -0.104 -0.104 -0.152 -0.16 l -0.077 -0.09 c -0.347 -0.379 -0.723 -0.821 -1.084 -1.274 L 13.837 59.445 c -1.39 -1.634 -2.061 -3.712 -1.888 -5.851 s 1.167 -4.082 2.801 -5.472 c 1.635 -1.391 3.711 -2.061 5.851 -1.889 c 1.973 0.159 3.78 1.019 5.14 2.435 V 8.032 C 25.741 3.603 29.344 0 33.773 0 s 8.032 3.603 8.032 8.032 v 10.836 c 1.186 -0.691 2.563 -1.087 4.032 -1.087 c 3.535 0 6.543 2.294 7.615 5.472 c 1.274 -0.852 2.806 -1.349 4.45 -1.349 c 3.588 0 6.635 2.365 7.662 5.619 c 1.284 -0.848 2.825 -1.343 4.48 -1.343 c 4.429 0 8.032 3.604 8.032 8.033 v 29.619 C 78.077 78.261 66.338 90 51.909 90 z M 35.535 78.776 c 0.018 0.019 0.036 0.037 0.054 0.057 C 39.777 83.388 45.726 86 51.909 86 c 12.224 0 22.168 -9.944 22.168 -22.168 V 34.213 c 0 -2.224 -1.809 -4.033 -4.032 -4.033 c -2.229 0 -4.11 1.854 -4.11 4.048 v 0.364 c 0 1.104 -0.896 2 -2 2 s -2 -0.896 -2 -2 v -4.656 c 0 -2.223 -1.809 -4.032 -4.032 -4.032 s -4.032 1.809 -4.032 4.032 c 0 1.104 -0.896 2 -2 2 s -2 -0.896 -2 -2 v -4.124 c 0 -2.223 -1.809 -4.032 -4.033 -4.032 c -2.223 0 -4.032 1.809 -4.032 4.032 c 0 1.104 -0.896 2 -2 2 s -2 -0.896 -2 -2 V 8.032 C 37.805 5.809 35.996 4 33.773 4 s -4.032 1.809 -4.032 4.032 v 46.051 c 0 0.838 -0.523 1.588 -1.31 1.877 c -0.788 0.289 -1.671 0.058 -2.214 -0.581 l -3.191 -3.751 c -0.698 -0.82 -1.673 -1.32 -2.747 -1.406 s -2.116 0.251 -2.937 0.948 c -0.82 0.697 -1.319 1.673 -1.406 2.747 c -0.086 1.073 0.25 2.116 0.948 2.937 L 34.518 77.58 c 0.347 0.434 0.666 0.81 0.997 1.173 L 35.535 78.776 z" style="stroke: none; stroke-width: 1; stroke-dasharray: none; stroke-linecap: butt; stroke-linejoin: miter; stroke-miterlimit: 10; fill: rgb(0,0,0); fill-rule: nonzero; opacity: 1;" transform=" matrix(1 0 0 1 0 0) " stroke-linecap="round" />
	<path d="M 39.805 45.953 c -1.104 0 -2 -0.896 -2 -2 v -18.14 c 0 -1.104 0.896 -2 2 -2 s 2 0.896 2 2 v 18.14 C 41.805 45.058 40.91 45.953 39.805 45.953 z" style="stroke: none; stroke-width: 1; stroke-dasharray: none; stroke-linecap: butt; stroke-linejoin: miter; stroke-miterlimit: 10; fill: rgb(0,0,0); fill-rule: nonzero; opacity: 1;" transform=" matrix(1 0 0 1 0 0) " stroke-linecap="round" />
	<path d="M 51.87 45.953 c -1.104 0 -2 -0.896 -2 -2 V 29.937 c 0 -1.104 0.896 -2 2 -2 s 2 0.896 2 2 v 14.017 C 53.87 45.058 52.975 45.953 51.87 45.953 z" style="stroke: none; stroke-width: 1; stroke-dasharray: none; stroke-linecap: butt; stroke-linejoin: miter; stroke-miterlimit: 10; fill: rgb(0,0,0); fill-rule: nonzero; opacity: 1;" transform=" matrix(1 0 0 1 0 0) " stroke-linecap="round" />
	<path d="M 63.935 45.953 c -1.104 0 -2 -0.896 -2 -2 v -9.36 c 0 -1.104 0.896 -2 2 -2 s 2 0.896 2 2 v 9.36 C 65.935 45.058 65.039 45.953 63.935 45.953 z" style="stroke: none; stroke-width: 1; stroke-dasharray: none; stroke-linecap: butt; stroke-linejoin: miter; stroke-miterlimit: 10; fill: rgb(0,0,0); fill-rule: nonzero; opacity: 1;" transform=" matrix(1 0 0 1 0 0) " stroke-linecap="round" />
</g>
</svg>